<svg xmlns="http://www.w3.org/2000/svg" xmlns:xlink="http://www.w3.org/1999/xlink" version="1.1" x="0px" y="0px" viewBox="0 0 100 125" style="enable-background:new 0 0 100 100;" xml:space="preserve"><path d="M6.5,75.8c3,0,5.1,0.8,7.5,1.8c3.8,1.5,9.1,3.6,21.4,3.6h1.2c0.1,0,33,0,33,0c1.9,0,3.4-1.5,3.4-3.4s-1.5-3.4-3.4-3.4H46.4  c-0.8,0-1.5-0.7-1.5-1.5s0.7-1.5,1.5-1.5h23.2h10.1c1.9,0,3.4-1.5,3.4-3.4s-1.5-3.4-3.4-3.4H46.4c-0.8,0-1.5-0.7-1.5-1.5  s0.7-1.5,1.5-1.5h33.3h5.8c1.9,0,3.4-1.5,3.4-3.4s-1.5-3.4-3.4-3.4h-4.3H46.7c-0.8,0-1.5-0.7-1.5-1.5s0.7-1.5,1.5-1.5h34.6  c1.9,0,3.4-1.5,3.4-3.4c0-1.9-1.5-3.4-3.4-3.4H30.6c-1.8,2.7-3.1,3.9-3.2,4c-0.6,0.6-1.5,0.5-2.1-0.1c-0.6-0.6-0.5-1.6,0.1-2.1  c0,0,2.3-2.2,4.8-7l4.8-9.1c0.1-0.3,0.2-0.7,0.3-1.1c1-3.5,2.2-7.5-3.2-10.3l-4.5,9.1c0,0.1-0.1,0.2-0.1,0.2L21.2,37  c-0.1,0.2-0.3,0.3-0.5,0.4c-0.1,0-8.4,4.8-13,11.9C7.5,49.8,7,50,6.5,50c-0.3,0-0.6-0.1-0.8-0.2c-0.7-0.4-0.9-1.4-0.4-2.1  c4.5-7,12.1-11.8,13.7-12.7l5.9-8.1L30,16.6c0.3-0.7,1.2-1,1.9-0.7c9.3,3.8,7.3,10.8,6.2,14.5c-0.1,0.4-0.2,0.8-0.3,1.2  c0,0.1-0.1,0.2-0.1,0.3l-4.9,9.2c-0.1,0.3-0.3,0.6-0.4,0.8h49c3.5,0,6.4,2.9,6.4,6.4c0,1.3-0.4,2.5-1.1,3.5c3,0.5,5.3,3.2,5.3,6.3  c0,3.5-2.9,6.4-6.4,6.4h-0.4c0.6,1,1,2.2,1,3.4c0,3.5-2.9,6.4-6.4,6.4h-4.7c0.6,1,1,2.2,1,3.4c0,3.5-2.9,6.4-6.4,6.4  c0,0-33.2,0-33.3,0h-0.9c-12.9,0-18.5-2.2-22.5-3.8c-2.3-0.9-4-1.6-6.4-1.6c-0.8,0-1.5-0.7-1.5-1.5S5.7,75.8,6.5,75.8z"/></svg>
