<svg xmlns="http://www.w3.org/2000/svg" xmlns:xlink="http://www.w3.org/1999/xlink" version="1.1" x="0px" y="0px" viewBox="0 0 100 125" style="enable-background:new 0 0 100 100;" xml:space="preserve"><path d="M6.5,64c3,0,5.1,0.8,7.6,1.8c3.4,1.3,7.9,3.1,17.4,3.5c-0.6-1-0.9-2.1-0.9-3.4c0-3,2.1-5.6,4.9-6.3c-0.7-1-1.1-2.3-1.1-3.7  c0-2,0.9-3.8,2.4-5c-1.4-1.2-2.4-3-2.4-5c0-1,0.2-1.9,0.6-2.7l-2.2,0.5c-3.7,5.4-8.3,6.1-10.5,6.1c-0.7,0-1.2-0.1-1.2-0.1  c-0.8-0.1-1.3-0.9-1.2-1.7c0.1-0.8,0.9-1.4,1.7-1.2c0.2,0,5.2,0.8,9-5.2c0.2-0.3,0.5-0.6,0.9-0.6l8.9-2c0.7-0.2,1.4,0.2,1.7,0.8  c2.9,6.3,5.8,5.5,9.4,4.5l-3.8-7.1c0,0,0-0.1-0.1-0.1c-0.2-0.4-0.3-0.9-0.5-1.5c-0.6-1.7-1.4-4-2.9-4.7c-1.4-0.7-2.9-0.4-5.3,0.1  c-1.2,0.2-2.5,0.5-4,0.7c-3,0.6-6.1,1.8-9.4,3.1C20,37,13.9,39.4,6.6,39.8c-0.8,0-1.5-0.6-1.6-1.4c0-0.8,0.6-1.5,1.4-1.6  c6.8-0.3,12.5-2.6,18-4.7c3.5-1.4,6.7-2.7,10-3.3c0,0,0.1,0,0.1,0c1.4-0.2,2.7-0.4,3.8-0.6c2.6-0.5,4.9-1,7.2,0.1  c0.7,0.3,1.3,0.8,1.8,1.4h9.2c3.6,0,6.5,2.9,6.5,6.5c0,1.4-0.4,2.7-1.2,3.7c2.7,0.8,4.8,3.3,4.8,6.2c0,3-2.1,5.6-4.9,6.3  c0.7,1,1.1,2.3,1.1,3.7c0,3-2.1,5.6-4.9,6.3c0.7,1,1.1,2.3,1.1,3.7c0,3.6-2.9,6.5-6.5,6.5l-16.7,0c-13.1,0-18.7-2.2-22.8-3.8  C10.6,67.6,8.9,67,6.5,67C5.7,67,5,66.3,5,65.5S5.7,64,6.5,64z M56.5,32.6h-7.4c0.3,0.7,0.6,1.5,0.8,2.1c0.2,0.5,0.3,0.9,0.4,1.2  l2,3.7h4.2c1.9,0,3.5-1.6,3.5-3.5C59.9,34.2,58.4,32.6,56.5,32.6z M63.5,46.1c0-1.9-1.6-3.5-3.5-3.5h-6.2l1.1,2  c0.2,0.4,0.2,0.9,0,1.3c-0.2,0.4-0.6,0.7-1,0.8c-0.5,0.1-1,0.3-1.6,0.4c-3.6,1-8.3,2.4-12.3-4.6c-1.6,0.3-2.8,1.7-2.8,3.4  c0,1.9,1.6,3.5,3.5,3.5c0.2,0,0.3,0,0.5,0.1l18.8,0C61.9,49.5,63.5,48,63.5,46.1z M59.7,56c0-1.9-1.5-3.4-3.4-3.5l-16,0  c-1.7,0.2-3,1.7-3,3.4c0,1.9,1.6,3.5,3.5,3.5h15.5C58.2,59.5,59.7,57.9,59.7,56z M55.9,66c0-1.9-1.6-3.5-3.5-3.5H37  c-1.9,0-3.5,1.6-3.5,3.5c0,1.8,1.4,3.3,3.2,3.4l15.8,0C54.4,69.4,55.9,67.9,55.9,66z"/></svg>
